<?xml version="1.0" standalone="no"?>
<!DOCTYPE svg PUBLIC "-//W3C//DTD SVG 20010904//EN"
 "http://www.w3.org/TR/2001/REC-SVG-20010904/DTD/svg10.dtd">
<svg version="1.0" xmlns="http://www.w3.org/2000/svg"
 width="1280.000000pt" height="720.000000pt" viewBox="0 0 1280.000000 720.000000"
 preserveAspectRatio="xMidYMid meet">

<g transform="translate(0.000000,720.000000) scale(0.100000,-0.100000)"
fill="#000000" stroke="none">
<path d="M0 3600 l0 -3600 6400 0 6400 0 0 3600 0 3600 -6400 0 -6400 0 0
-3600z m7587 3576 c0 -8 -6 -12 -15 -9 -11 5 -11 7 0 14 7 5 13 9 14 9 0 0 1
-6 1 -14z m43 -28 c0 -4 -4 -8 -9 -8 -6 0 -12 4 -15 8 -3 5 1 9 9 9 8 0 15 -4
15 -9z m43 -85 c3 -5 1 -17 -4 -28 -4 -11 -8 -15 -8 -8 -1 6 -4 18 -7 27 -6
16 11 23 19 9z m3190 -746 c3 -8 -1 -14 -9 -14 -15 0 -18 9 -7 20 9 9 10 9 16
-6z m47 -51 c0 -3 -4 -8 -10 -11 -5 -3 -10 -1 -10 4 0 6 5 11 10 11 6 0 10 -2
10 -4z m27 -50 c4 -3 -83 -5 -193 -5 -109 1 -186 4 -169 8 37 8 354 5 362 -3z
m-7047 -2281 l0 -585 200 0 201 0 -3 -97 -3 -98 -300 0 -300 0 -3 683 -2 682
105 0 105 0 0 -585z m4025 348 c61 -15 172 -69 213 -103 l23 -19 -57 -78 c-31
-43 -58 -80 -60 -82 -2 -2 -21 7 -41 21 -76 50 -151 71 -253 72 -84 1 -102 -3
-157 -28 -74 -34 -153 -112 -185 -183 -32 -70 -33 -247 -1 -315 30 -66 105
-143 172 -175 51 -26 66 -28 171 -28 108 0 119 2 181 31 101 48 210 155 178
175 -9 5 -10 11 -4 18 13 12 184 81 202 81 10 0 13 -28 13 -120 0 -120 0 -120
-23 -115 -18 5 -29 -3 -58 -43 -72 -96 -182 -171 -319 -218 -78 -27 -282 -27
-360 0 -178 61 -305 181 -360 342 -80 231 -35 453 123 608 163 160 375 216
602 159z m1145 -58 l0 -85 -230 0 -230 0 0 -135 0 -135 223 -2 222 -3 0 -80 0
-80 -222 -3 -223 -2 0 -190 0 -190 230 0 231 0 -3 -82 -3 -83 -315 0 -315 0
-3 578 -2 577 320 0 320 0 0 -85z m-4115 -199 c73 -23 147 -77 189 -140 52
-79 67 -128 73 -238 l6 -98 -302 0 c-333 0 -312 5 -287 -68 40 -113 142 -169
256 -142 53 13 88 40 145 114 l31 39 77 -42 c42 -24 79 -46 82 -51 9 -15 -96
-138 -148 -174 -64 -44 -115 -62 -198 -71 -161 -17 -323 58 -401 185 -105 173
-78 457 57 592 37 38 112 82 165 99 44 13 204 10 255 -5z m919 -15 c27 -13 64
-37 82 -54 l34 -29 0 46 0 46 100 0 100 0 -2 -432 -3 -433 -97 -3 -98 -3 0 56
0 56 -32 -24 c-125 -93 -276 -107 -409 -36 -199 106 -277 389 -170 614 49 104
124 173 229 212 61 22 206 13 266 -16z m991 12 c68 -23 138 -94 161 -164 15
-46 19 -101 22 -381 l3 -328 -99 0 c-82 0 -101 3 -106 16 -3 9 -6 142 -6 297
0 258 -2 286 -20 325 -25 55 -70 76 -151 70 -71 -5 -105 -27 -132 -86 -20 -44
-22 -67 -27 -332 l-5 -285 -100 0 -100 0 -3 433 -2 432 105 0 105 0 0 -37 0
-36 23 21 c12 11 47 32 77 46 67 32 179 35 255 9z m-1983 -1240 l3 -118 68 -5
c98 -7 89 -24 -15 -28 l-88 -3 0 129 c0 71 3 132 7 135 18 18 23 -2 25 -110z
m1870 87 c28 -29 34 -60 13 -66 -5 -2 -19 11 -30 29 -37 58 -118 47 -150 -20
-20 -42 -14 -89 16 -127 16 -21 29 -26 63 -26 46 0 67 15 85 63 13 33 31 36
31 5 0 -70 -78 -121 -151 -99 -96 29 -119 178 -38 246 24 19 42 25 81 25 42 0
54 -5 80 -30z m-1312 -10 c0 -31 -16 -41 -26 -15 -8 19 2 45 16 45 5 0 10 -13
10 -30z m310 -1 c0 -38 -24 -35 -28 4 -2 19 1 27 12 27 11 0 16 -10 16 -31z
m614 15 c22 -21 20 -67 -3 -88 -27 -25 -8 -58 27 -49 22 5 24 3 18 -24 -5 -21
-2 -34 9 -43 8 -7 15 -19 15 -26 0 -16 -22 -18 -36 -4 -7 7 -20 6 -40 -5 -35
-18 -45 -18 -78 -4 -38 18 -51 60 -31 98 9 18 23 35 31 38 13 5 13 8 -1 29
-19 30 -19 53 2 76 20 22 66 24 87 2z m-684 -24 c0 -19 19 -30 51 -30 17 0 19
-8 19 -93 l0 -93 -45 -2 c-41 -1 -47 1 -55 24 -6 14 -10 49 -10 79 0 34 -5 55
-12 58 -13 4 -1 39 25 74 12 16 27 7 27 -17z m1520 6 c0 -15 7 -26 20 -29 11
-3 20 -10 20 -17 0 -7 -9 -14 -20 -17 -17 -5 -20 -14 -20 -69 0 -57 2 -64 20
-64 11 0 20 -7 20 -15 0 -18 -41 -20 -58 -3 -7 7 -12 40 -12 76 0 50 -4 68
-17 78 -17 13 -17 15 0 28 9 7 17 20 17 28 0 8 3 18 7 21 13 14 23 6 23 -17z
m-2029 -55 c51 -51 35 -148 -28 -172 -40 -15 -88 5 -107 45 -20 42 -20 69 -1
106 30 58 89 67 136 21z m184 5 c28 -28 39 -78 33 -147 -7 -66 -29 -89 -85
-89 -32 0 -43 4 -43 15 0 10 10 15 33 15 33 0 57 15 57 35 0 6 -16 9 -41 7
-71 -7 -115 61 -85 133 25 59 88 74 131 31z m230 -1 c14 -13 25 -31 25 -40 0
-22 -28 -18 -35 5 -7 21 -46 37 -64 25 -6 -3 -11 -14 -11 -24 0 -14 10 -21 38
-26 60 -11 89 -53 64 -92 -21 -33 -112 -34 -134 -1 -13 21 -9 58 6 58 8 0 16
-10 18 -22 3 -20 9 -23 43 -23 29 0 41 4 43 17 2 12 -8 20 -40 29 -77 22 -98
59 -58 99 28 28 75 26 105 -5z m310 15 c29 -11 48 -49 33 -65 -6 -7 -16 -1
-30 18 -23 32 -50 35 -78 7 -22 -22 -26 -70 -10 -101 17 -30 77 -26 92 6 12
27 38 34 38 11 0 -8 -10 -27 -23 -41 -32 -38 -92 -38 -124 0 -35 40 -32 107 6
146 31 31 53 35 96 19z m185 -10 c24 -24 27 -60 5 -60 -8 0 -15 6 -15 14 0 23
-28 39 -56 32 -41 -11 -26 -38 29 -54 60 -17 79 -48 53 -87 -35 -54 -146 -27
-146 36 0 26 23 24 35 -3 12 -27 58 -36 81 -17 20 16 7 28 -53 48 -42 14 -48
20 -51 48 -2 23 3 35 20 47 31 22 74 20 98 -4z m762 -70 c3 -75 3 -75 33 -78
41 -5 55 19 55 94 0 35 5 66 10 69 14 9 18 -9 22 -107 l4 -87 -40 -1 c-23 0
-50 -1 -60 -1 -38 0 -60 36 -64 106 -3 44 0 70 8 80 21 25 29 5 32 -75z m266
74 c25 -17 30 -64 7 -64 -8 0 -15 6 -15 14 0 23 -28 39 -56 32 -41 -11 -26
-38 29 -54 60 -17 79 -48 53 -87 -35 -53 -146 -26 -146 36 0 27 25 23 38 -6 9
-20 19 -25 46 -25 36 0 54 21 33 38 -7 6 -31 15 -53 21 -81 22 -67 111 16 111
14 0 36 -7 48 -16z m284 -14 c28 -28 30 -35 26 -81 -6 -63 -31 -91 -82 -91
-68 0 -107 66 -84 138 23 68 90 84 140 34z m170 19 c14 -8 23 -8 31 0 18 18
63 13 83 -10 15 -17 19 -36 19 -97 0 -51 -4 -77 -12 -79 -9 -3 -13 12 -14 54
-1 78 -11 107 -35 111 -32 5 -43 -18 -46 -93 -2 -43 -8 -70 -15 -73 -10 -3
-13 14 -13 63 0 70 -12 105 -35 105 -27 0 -45 -42 -45 -107 0 -49 -3 -63 -15
-63 -12 0 -15 17 -15 94 l0 95 28 4 c51 8 63 7 84 -4z m294 -14 c26 -26 28
-45 5 -53 -7 -2 -15 5 -18 17 -7 28 -50 39 -70 18 -20 -20 -11 -33 30 -41 46
-9 77 -33 77 -60 0 -27 -26 -53 -55 -56 -62 -7 -95 13 -95 56 0 32 18 31 30
-2 9 -22 15 -25 47 -22 56 5 57 33 1 49 -77 22 -98 59 -58 99 28 28 75 26 106
-5z m-2416 -81 c0 -72 -3 -95 -12 -92 -9 3 -14 34 -16 96 -2 77 0 92 13 92 12
0 15 -16 15 -96z m-4582 13 c18 -1 4 -11 -18 -12 -10 -1 -17 2 -14 6 2 4 1 9
-3 12 -5 2 -1 2 7 -1 8 -2 21 -5 28 -5z m3882 -7 c0 -20 -7 -20 -595 -20 -588
0 -595 0 -595 20 0 20 7 20 595 20 588 0 595 0 595 -20z m4470 0 c0 -20 -7
-20 -595 -20 -588 0 -595 0 -595 20 0 20 7 20 595 20 588 0 595 0 595 -20z
m-8290 -94 c0 -2 -9 -6 -20 -9 -11 -3 -18 -1 -14 4 5 9 34 13 34 5z m1 -31 c5
4 6 -1 3 -9 -3 -9 -10 -16 -16 -16 -5 0 -6 5 -3 10 3 6 1 10 -5 10 -6 0 -8 5
-4 12 6 9 9 9 12 0 2 -7 8 -10 13 -7z m35 -70 c-1 -8 -6 -18 -11 -22 -4 -4 -5
-2 -1 5 4 7 2 12 -6 12 -9 0 -9 3 2 10 19 12 19 13 16 -5z m4340 -2301 c2 -11
-1 -12 -10 -5 -7 6 -17 7 -22 3 -4 -4 -2 1 5 11 15 19 24 16 27 -9z m75 -121
c13 -16 12 -17 -3 -4 -10 7 -18 15 -18 17 0 8 8 3 21 -13z m27 -56 c17 6 15
-4 -3 -11 -9 -3 -19 3 -25 17 -10 19 -9 20 2 6 7 -9 19 -14 26 -12z"/>
<path d="M4779 3860 c-47 -8 -93 -37 -124 -80 -44 -60 -44 -60 160 -60 149 0
185 3 185 14 0 19 -41 76 -70 98 -31 22 -103 36 -151 28z"/>
<path d="M5665 3846 c-41 -19 -101 -83 -120 -130 -22 -52 -22 -180 0 -231 48
-117 146 -170 265 -144 211 45 246 399 49 499 -45 24 -148 27 -194 6z"/>
<path d="M6293 2853 c-18 -7 -16 -28 3 -43 12 -11 18 -10 31 3 28 27 4 56 -34
40z"/>
<path d="M6272 2725 c-34 -43 1 -84 56 -64 29 11 28 22 -6 60 l-28 32 -22 -28z"/>
<path d="M5688 2793 c-15 -4 -18 -16 -18 -68 0 -54 3 -63 20 -68 19 -5 20 0
20 69 0 41 -1 73 -2 73 -2 -1 -11 -3 -20 -6z"/>
<path d="M5069 2781 c-16 -13 -23 -29 -23 -54 0 -44 18 -67 55 -67 53 0 79 80
39 120 -25 25 -41 25 -71 1z"/>
<path d="M5257 2782 c-35 -38 -13 -112 33 -112 47 0 69 80 32 113 -24 22 -45
21 -65 -1z"/>
<path d="M7292 2784 c-24 -17 -30 -70 -12 -105 14 -25 61 -25 83 -1 23 25 21
78 -3 102 -24 24 -38 25 -68 4z"/>
</g>
</svg>
